<svg width="143" height="36" viewBox="0 0 143 36" fill="none" xmlns="http://www.w3.org/2000/svg">
<g filter="url(#filter0_d_1_4)">
<path d="M26.9 3.06V24H22.7V10.38L17.09 24H13.91L8.27 10.38V24H4.07V3.06H8.84L15.5 18.63L22.16 3.06H26.9Z" fill="black"/>
<path d="M35.2524 3.06V24H31.0524V3.06H35.2524ZM48.612 7.14C50.592 7.14 52.192 7.77 53.412 9.03C54.632 10.27 55.242 12.01 55.242 14.25V24H51.042V14.82C51.042 13.5 50.712 12.49 50.052 11.79C49.392 11.07 48.492 10.71 47.352 10.71C46.192 10.71 45.272 11.07 44.592 11.79C43.932 12.49 43.602 13.5 43.602 14.82V24H39.402V7.38H43.602V9.45C44.162 8.73 44.872 8.17 45.732 7.77C46.612 7.35 47.572 7.14 48.612 7.14ZM64.126 10.83V18.87C64.126 19.43 64.256 19.84 64.516 20.1C64.796 20.34 65.256 20.46 65.896 20.46H67.846V24H65.206C61.666 24 59.896 22.28 59.896 18.84V10.83H57.916V7.38H59.896V3.27H64.126V7.38H67.846V10.83H64.126ZM86.3169 15.33C86.3169 15.93 86.2769 16.47 86.1969 16.95H74.0469C74.1469 18.15 74.5669 19.09 75.3069 19.77C76.0469 20.45 76.9569 20.79 78.0369 20.79C79.5969 20.79 80.7069 20.12 81.3669 18.78H85.8969C85.4169 20.38 84.4969 21.7 83.1369 22.74C81.7769 23.76 80.1069 24.27 78.1269 24.27C76.5269 24.27 75.0869 23.92 73.8069 23.22C72.5469 22.5 71.5569 21.49 70.8369 20.19C70.1369 18.89 69.7869 17.39 69.7869 15.69C69.7869 13.97 70.1369 12.46 70.8369 11.16C71.5369 9.86 72.5169 8.86 73.7769 8.16C75.0369 7.46 76.4869 7.11 78.1269 7.11C79.7069 7.11 81.1169 7.45 82.3569 8.13C83.6169 8.81 84.5869 9.78 85.2669 11.04C85.9669 12.28 86.3169 13.71 86.3169 15.33ZM81.9669 14.13C81.9469 13.05 81.5569 12.19 80.7969 11.55C80.0369 10.89 79.1069 10.56 78.0069 10.56C76.9669 10.56 76.0869 10.88 75.3669 11.52C74.6669 12.14 74.2369 13.01 74.0769 14.13H81.9669ZM93.5825 9.96C94.1225 9.08 94.8225 8.39 95.6825 7.89C96.5625 7.39 97.5625 7.14 98.6825 7.14V11.55H97.5725C96.2525 11.55 95.2525 11.86 94.5725 12.48C93.9125 13.1 93.5825 14.18 93.5825 15.72V24H89.3825V7.38H93.5825V9.96ZM103.641 5.4C102.901 5.4 102.281 5.17 101.781 4.71C101.301 4.23 101.061 3.64 101.061 2.94C101.061 2.24 101.301 1.66 101.781 1.2C102.281 0.719999 102.901 0.479999 103.641 0.479999C104.381 0.479999 104.991 0.719999 105.471 1.2C105.971 1.66 106.221 2.24 106.221 2.94C106.221 3.64 105.971 4.23 105.471 4.71C104.991 5.17 104.381 5.4 103.641 5.4ZM105.711 7.38V24H101.511V7.38H105.711ZM117.241 24.27C115.641 24.27 114.201 23.92 112.921 23.22C111.641 22.5 110.631 21.49 109.891 20.19C109.171 18.89 108.811 17.39 108.811 15.69C108.811 13.99 109.181 12.49 109.921 11.19C110.681 9.89 111.711 8.89 113.011 8.19C114.311 7.47 115.761 7.11 117.361 7.11C118.961 7.11 120.411 7.47 121.711 8.19C123.011 8.89 124.031 9.89 124.771 11.19C125.531 12.49 125.911 13.99 125.911 15.69C125.911 17.39 125.521 18.89 124.741 20.19C123.981 21.49 122.941 22.5 121.621 23.22C120.321 23.92 118.861 24.27 117.241 24.27ZM117.241 20.61C118.001 20.61 118.711 20.43 119.371 20.07C120.051 19.69 120.591 19.13 120.991 18.39C121.391 17.65 121.591 16.75 121.591 15.69C121.591 14.11 121.171 12.9 120.331 12.06C119.511 11.2 118.501 10.77 117.301 10.77C116.101 10.77 115.091 11.2 114.271 12.06C113.471 12.9 113.071 14.11 113.071 15.69C113.071 17.27 113.461 18.49 114.241 19.35C115.041 20.19 116.041 20.61 117.241 20.61ZM133.192 9.96C133.732 9.08 134.432 8.39 135.292 7.89C136.172 7.39 137.172 7.14 138.292 7.14V11.55H137.182C135.862 11.55 134.862 11.86 134.182 12.48C133.522 13.1 133.192 14.18 133.192 15.72V24H128.992V7.38H133.192V9.96Z" fill="#38814D"/>
</g>
<defs>
<filter id="filter0_d_1_4" x="0.0700073" y="0.480011" width="142.222" height="34.79" filterUnits="userSpaceOnUse" color-interpolation-filters="sRGB">
<feFlood flood-opacity="0" result="BackgroundImageFix"/>
<feColorMatrix in="SourceAlpha" type="matrix" values="0 0 0 0 0 0 0 0 0 0 0 0 0 0 0 0 0 0 127 0" result="hardAlpha"/>
<feOffset dy="7"/>
<feGaussianBlur stdDeviation="2"/>
<feComposite in2="hardAlpha" operator="out"/>
<feColorMatrix type="matrix" values="0 0 0 0 0 0 0 0 0 0 0 0 0 0 0 0 0 0 0.25 0"/>
<feBlend mode="normal" in2="BackgroundImageFix" result="effect1_dropShadow_1_4"/>
<feBlend mode="normal" in="SourceGraphic" in2="effect1_dropShadow_1_4" result="shape"/>
</filter>
</defs>
</svg>
